<?xml version="1.0" encoding="utf-8"?>
<!-- Generator: Adobe Illustrator 16.0.0, SVG Export Plug-In . SVG Version: 6.00 Build 0)  -->
<!DOCTYPE svg PUBLIC "-//W3C//DTD SVG 1.1//EN" "http://www.w3.org/Graphics/SVG/1.1/DTD/svg11.dtd">
<svg version="1.1" id="Layer_1" xmlns="http://www.w3.org/2000/svg" xmlns:xlink="http://www.w3.org/1999/xlink" x="0px" y="0px"
	 width="223px" height="55px" viewBox="0 0 223 55" style="enable-background:new 0 0 223 55;" xml:space="preserve">
<style type="text/css">
<![CDATA[
	.st0{fill:none;stroke:#FFFFFF;stroke-width:2;stroke-miterlimit:10;}
	.st1{fill:#FFFFFF;}
]]>
</style>
<g>
	<path class="st1" d="M15.2,38.1h-3.5V19.7H5.4v-3h16.1v3h-6.3V38.1z"/>
	<path class="st1" d="M36.9,38.1H24.8V16.7h12.1v3h-8.6v5.8h8.1v2.9h-8.1v6.7h8.6V38.1z"/>
	<path class="st1" d="M50.6,19.4c-2,0-3.6,0.7-4.7,2.1s-1.7,3.4-1.7,5.9c0,2.6,0.6,4.6,1.7,6c1.1,1.3,2.7,2,4.8,2
		c0.9,0,1.8-0.1,2.6-0.3s1.7-0.4,2.7-0.7v3c-1.7,0.6-3.6,1-5.7,1c-3.1,0-5.5-0.9-7.2-2.8s-2.5-4.6-2.5-8.2c0-2.2,0.4-4.2,1.2-5.8
		c0.8-1.7,2-2.9,3.5-3.8s3.4-1.3,5.4-1.3c2.2,0,4.2,0.5,6.1,1.4l-1.3,2.9c-0.7-0.3-1.5-0.6-2.3-0.9C52.4,19.5,51.5,19.4,50.6,19.4z"
		/>
	<path class="st1" d="M77.4,38.1h-3.5v-9.7H64v9.7h-3.5V16.7H64v8.8h9.9v-8.8h3.5V38.1z"/>
	<path class="st1" d="M90.8,16.7h6.4c2.9,0,5.1,0.4,6.4,1.3s2,2.2,2,4.1c0,1.3-0.3,2.3-1,3.1s-1.6,1.4-2.8,1.6v0.1
		c1.5,0.3,2.6,0.8,3.3,1.7c0.7,0.8,1.1,2,1.1,3.4c0,1.9-0.7,3.4-2,4.5s-3.2,1.6-5.6,1.6h-7.7V16.7z M94.4,25.5h3.4
		c1.5,0,2.5-0.2,3.2-0.7s1-1.3,1-2.4c0-1-0.4-1.7-1.1-2.2s-1.9-0.7-3.5-0.7h-3V25.5z M94.4,28.4v6.8h3.7c1.5,0,2.6-0.3,3.3-0.8
		c0.7-0.6,1.1-1.4,1.1-2.7c0-1.1-0.4-1.9-1.1-2.5s-1.9-0.8-3.5-0.8H94.4z"/>
	<path class="st1" d="M110.7,38.1V16.7h3.5v18.4h9.1v3H110.7z"/>
	<path class="st1" d="M145.9,27.4c0,3.5-0.9,6.2-2.6,8.1c-1.7,1.9-4.2,2.9-7.4,2.9c-3.2,0-5.7-1-7.4-2.9c-1.7-1.9-2.6-4.6-2.6-8.2
		s0.9-6.3,2.6-8.1c1.7-1.9,4.2-2.8,7.5-2.8c3.2,0,5.6,1,7.4,2.9S145.9,23.9,145.9,27.4z M129.6,27.4c0,2.6,0.5,4.6,1.6,6
		s2.6,2,4.7,2c2.1,0,3.6-0.7,4.7-2c1.1-1.3,1.6-3.4,1.6-6c0-2.6-0.5-4.6-1.6-6s-2.6-2-4.7-2c-2.1,0-3.7,0.7-4.8,2
		C130.1,22.8,129.6,24.7,129.6,27.4z"/>
	<path class="st1" d="M159.3,26.5h7.9v10.8c-1.3,0.4-2.5,0.7-3.7,0.9c-1.2,0.2-2.5,0.3-3.8,0.3c-3.2,0-5.7-1-7.5-2.9
		s-2.6-4.6-2.6-8.1c0-3.4,1-6.1,3-8.1s4.7-2.9,8.2-2.9c2.2,0,4.4,0.4,6.4,1.3l-1.2,2.9c-1.7-0.8-3.5-1.2-5.2-1.2
		c-2.3,0-4.1,0.7-5.4,2.2s-2,3.4-2,5.9c0,2.6,0.6,4.6,1.8,6s2.9,2,5.2,2c1.1,0,2.3-0.1,3.6-0.4v-5.5h-4.4V26.5z"/>
</g>
<rect x="188" y="21.3" class="st0" width="11" height="12"/>
<rect x="187" y="8.3" class="st1" width="13" height="10"/>
<rect x="187" y="36.3" class="st1" width="13" height="10"/>
<rect x="207" y="6.3" class="st0" width="11" height="11"/>
<rect x="207" y="37.3" class="st0" width="11" height="11"/>
<rect x="206" y="20.3" class="st1" width="13" height="14"/>
</svg>
